<svg width="876" height="584" viewBox="0 0 876 584" fill="none" xmlns="http://www.w3.org/2000/svg">
<circle opacity="0.308943" cx="146" cy="146" r="146" transform="matrix(0 -1 -1 0 292 584)" fill="url(#paint0_linear_247_65)"/>
<circle opacity="0.308943" cx="146" cy="146" r="146" transform="matrix(-1 0 0 1 876 292)" fill="url(#paint1_linear_247_65)"/>
<circle opacity="0.308943" cx="146" cy="146" r="146" transform="matrix(0 1 1 0 292 292)" fill="url(#paint2_linear_247_65)"/>
<circle opacity="0.308943" cx="146" cy="146" r="146" transform="matrix(0 -1 -1 0 876 292)" fill="url(#paint3_linear_247_65)"/>
<circle opacity="0.308943" cx="146" cy="146" r="146" transform="matrix(-1 0 0 1 584 0)" fill="url(#paint4_linear_247_65)"/>
<defs>
<linearGradient id="paint0_linear_247_65" x1="0" y1="292" x2="292" y2="292" gradientUnits="userSpaceOnUse">
<stop stop-color="#5D0202" stop-opacity="0.01"/>
<stop offset="1" stop-color="#5D0202" stop-opacity="0.497569"/>
</linearGradient>
<linearGradient id="paint1_linear_247_65" x1="0" y1="292" x2="292" y2="292" gradientUnits="userSpaceOnUse">
<stop stop-color="#5D0202" stop-opacity="0.01"/>
<stop offset="1" stop-color="#5D0202" stop-opacity="0.497569"/>
</linearGradient>
<linearGradient id="paint2_linear_247_65" x1="0" y1="292" x2="292" y2="292" gradientUnits="userSpaceOnUse">
<stop stop-color="#5D0202" stop-opacity="0.01"/>
<stop offset="1" stop-color="#5D0202" stop-opacity="0.497569"/>
</linearGradient>
<linearGradient id="paint3_linear_247_65" x1="0" y1="292" x2="292" y2="292" gradientUnits="userSpaceOnUse">
<stop stop-color="#5D0202" stop-opacity="0.01"/>
<stop offset="1" stop-color="#5D0202" stop-opacity="0.497569"/>
</linearGradient>
<linearGradient id="paint4_linear_247_65" x1="0" y1="292" x2="292" y2="292" gradientUnits="userSpaceOnUse">
<stop stop-color="#5D0202" stop-opacity="0.01"/>
<stop offset="1" stop-color="#5D0202" stop-opacity="0.497569"/>
</linearGradient>
</defs>
</svg>
