<svg width="876" height="584" viewBox="0 0 876 584" fill="none" xmlns="http://www.w3.org/2000/svg">
<g clip-path="url(#clip0_106_114)">
<circle opacity="0.308943" cx="730" cy="438" r="146" transform="rotate(-90 730 438)" fill="url(#paint0_linear_106_114)"/>
<circle opacity="0.308943" cx="438" cy="438" r="146" fill="url(#paint1_linear_106_114)"/>
<circle opacity="0.308943" cx="146" cy="438" r="146" transform="rotate(90 146 438)" fill="url(#paint2_linear_106_114)"/>
</g>
<g clip-path="url(#clip1_106_114)">
<circle opacity="0.308943" cx="730" cy="146" r="146" transform="rotate(-90 730 146)" fill="url(#paint3_linear_106_114)"/>
<circle opacity="0.308943" cx="438" cy="146" r="146" fill="url(#paint4_linear_106_114)"/>
</g>
<defs>
<linearGradient id="paint0_linear_106_114" x1="584" y1="584" x2="876" y2="584" gradientUnits="userSpaceOnUse">
<stop stop-color="#5D0202" stop-opacity="0.01"/>
<stop offset="1" stop-color="#5D0202" stop-opacity="0.497569"/>
</linearGradient>
<linearGradient id="paint1_linear_106_114" x1="292" y1="584" x2="584" y2="584" gradientUnits="userSpaceOnUse">
<stop stop-color="#5D0202" stop-opacity="0.01"/>
<stop offset="1" stop-color="#5D0202" stop-opacity="0.497569"/>
</linearGradient>
<linearGradient id="paint2_linear_106_114" x1="0" y1="584" x2="292" y2="584" gradientUnits="userSpaceOnUse">
<stop stop-color="#5D0202" stop-opacity="0.01"/>
<stop offset="1" stop-color="#5D0202" stop-opacity="0.497569"/>
</linearGradient>
<linearGradient id="paint3_linear_106_114" x1="584" y1="292" x2="876" y2="292" gradientUnits="userSpaceOnUse">
<stop stop-color="#5D0202" stop-opacity="0.01"/>
<stop offset="1" stop-color="#5D0202" stop-opacity="0.497569"/>
</linearGradient>
<linearGradient id="paint4_linear_106_114" x1="292" y1="292" x2="584" y2="292" gradientUnits="userSpaceOnUse">
<stop stop-color="#5D0202" stop-opacity="0.01"/>
<stop offset="1" stop-color="#5D0202" stop-opacity="0.497569"/>
</linearGradient>
<clipPath id="clip0_106_114">
<rect width="876" height="292" fill="white" transform="matrix(-1 0 0 1 876 292)"/>
</clipPath>
<clipPath id="clip1_106_114">
<rect width="584" height="292" fill="white" transform="matrix(-1 0 0 1 876 0)"/>
</clipPath>
</defs>
</svg>
